<svg id="svg" version="1.1" xmlns="http://www.w3.org/2000/svg" xmlns:xlink="http://www.w3.org/1999/xlink" width="400" height="400" viewBox="0, 0, 400,400"><g id="svgg"><path id="path0" d="M28.000 89.922 L 28.000 175.844 115.000 177.004 L 202.000 178.164 115.000 179.082 L 28.000 180.000 28.000 266.000 L 28.000 352.000 114.000 352.000 L 200.000 352.000 200.000 374.000 L 200.000 396.000 286.000 396.000 L 372.000 396.000 372.000 310.078 L 372.000 224.156 285.000 222.996 L 198.000 221.836 285.000 220.918 L 372.000 220.000 372.000 136.000 L 372.000 52.000 286.000 52.000 L 200.000 52.000 200.000 28.000 L 200.000 4.000 114.000 4.000 L 28.000 4.000 28.000 89.922 M132.685 66.620 C 142.709 75.691,142.095 94.079,131.522 101.485 L 123.044 107.423 131.794 119.711 C 136.607 126.470,139.010 132.000,137.135 132.000 C 135.259 132.000,130.535 126.600,126.636 120.000 C 120.943 110.362,116.836 108.000,105.774 108.000 C 93.136 108.000,92.000 108.990,92.000 120.000 C 92.000 126.600,90.650 132.004,89.000 132.009 C 87.350 132.014,86.578 115.814,87.284 96.009 L 88.568 60.000 106.969 60.000 C 118.478 60.000,128.110 62.479,132.685 66.620 M364.000 136.000 L 364.000 212.000 286.000 212.000 L 208.000 212.000 208.000 136.000 L 208.000 60.000 286.000 60.000 L 364.000 60.000 364.000 136.000 M92.000 84.000 C 92.000 106.318,106.686 112.079,127.110 97.773 C 145.650 84.787,133.712 64.000,107.714 64.000 L 92.000 64.000 92.000 84.000 M274.841 118.805 C 271.440 127.162,264.113 144.167,258.559 156.594 C 248.579 178.923,248.556 179.212,256.626 181.323 C 261.117 182.497,263.777 182.443,262.536 181.203 C 261.296 179.963,262.081 175.585,264.281 171.474 C 270.275 160.276,306.411 160.691,310.000 172.000 C 311.397 176.400,315.951 180.000,320.122 180.000 C 326.879 180.000,325.839 175.967,310.583 143.003 C 291.239 101.204,283.999 96.302,274.841 118.805 M293.897 135.801 C 302.131 151.723,301.996 152.000,286.065 152.000 L 272.129 152.000 278.806 138.000 C 286.862 121.106,286.338 121.183,293.897 135.801 M192.000 266.000 L 192.000 344.000 114.000 344.000 L 36.000 344.000 36.000 266.000 L 36.000 188.000 114.000 188.000 L 192.000 188.000 192.000 266.000 M80.000 260.000 L 80.000 300.962 104.177 299.213 C 135.256 296.965,149.818 284.453,149.818 260.000 C 149.818 235.547,135.256 223.035,104.177 220.787 L 80.000 219.038 80.000 260.000 M128.224 239.377 C 149.074 256.260,134.278 288.000,105.557 288.000 L 92.000 288.000 92.000 260.000 L 92.000 232.000 105.557 232.000 C 113.013 232.000,123.213 235.320,128.224 239.377 M306.361 272.583 C 308.364 275.825,305.992 276.363,298.256 274.422 C 267.862 266.793,262.275 287.200,291.000 300.923 C 311.577 310.753,317.243 322.669,305.840 332.133 C 296.876 339.572,272.477 338.263,264.525 329.915 C 258.420 323.506,258.591 323.369,267.185 327.772 C 281.883 335.305,301.761 331.680,303.253 321.195 C 304.259 314.124,300.714 310.579,285.253 303.195 C 264.274 293.176,258.617 281.829,270.330 273.264 C 279.189 266.786,302.505 266.345,306.361 272.583 " stroke="none" fill="#000000" fill-rule="evenodd"></path></g></svg>