<svg id="svg" version="1.1" xmlns="http://www.w3.org/2000/svg" xmlns:xlink="http://www.w3.org/1999/xlink" width="400" height="400" viewBox="0, 0, 400,400"><g id="svgg"><path id="path0" d="M202.400 136.600 L 202.400 220.400 287.000 220.400 L 371.600 220.400 371.600 136.600 L 371.600 52.800 287.000 52.800 L 202.400 52.800 202.400 136.600 M84.267 58.267 C 84.120 58.413,84.000 75.063,84.000 95.267 L 84.000 132.000 88.600 132.000 L 93.200 132.000 93.200 120.600 L 93.200 109.200 105.300 109.221 L 117.400 109.242 124.937 120.621 L 132.474 132.000 137.437 132.000 C 143.378 132.000,143.270 132.422,138.893 126.303 C 136.965 123.606,135.044 120.865,134.625 120.210 C 134.207 119.556,133.711 118.836,133.524 118.610 C 132.635 117.540,126.000 107.841,126.000 107.613 C 126.000 107.471,126.765 107.021,127.700 106.614 C 148.363 97.616,146.708 66.411,125.200 59.478 C 120.879 58.085,119.546 58.000,102.061 58.000 C 92.421 58.000,84.413 58.120,84.267 58.267 M119.154 58.834 C 125.536 59.880,129.239 61.341,133.020 64.303 C 135.399 66.168,138.799 70.237,138.800 71.220 C 138.800 71.561,138.955 72.011,139.145 72.220 C 140.597 73.817,141.766 82.137,141.166 86.600 C 139.859 96.313,136.084 101.769,127.876 105.811 C 124.373 107.536,123.914 106.285,132.464 118.320 C 135.949 123.226,138.800 127.328,138.800 127.436 C 138.800 127.545,139.168 128.029,139.618 128.511 C 140.068 128.994,140.684 129.887,140.987 130.495 L 141.539 131.600 137.269 131.590 L 133.000 131.580 125.438 120.190 L 117.876 108.800 105.338 108.800 L 92.800 108.800 92.800 120.200 L 92.800 131.600 88.800 131.600 L 84.800 131.600 84.800 95.000 L 84.800 58.400 100.654 58.400 C 110.154 58.400,117.568 58.574,119.154 58.834 M92.800 83.605 L 92.800 101.231 105.900 101.085 C 120.969 100.916,123.675 100.446,127.680 97.303 C 137.111 89.900,135.746 72.967,125.351 68.411 C 124.278 67.941,123.040 67.398,122.600 67.205 C 120.811 66.421,118.436 66.267,105.900 66.126 L 92.800 65.979 92.800 83.605 M117.236 66.836 C 128.258 68.265,132.958 73.219,132.954 83.400 C 132.948 96.994,126.632 100.800,104.076 100.800 L 93.200 100.800 93.200 83.600 L 93.200 66.400 103.536 66.400 C 109.221 66.400,115.386 66.596,117.236 66.836 M292.484 107.505 C 293.519 109.765,295.601 114.399,296.392 116.200 C 297.829 119.474,298.361 120.668,299.600 123.400 C 300.298 124.940,301.148 126.830,301.488 127.600 C 301.828 128.370,302.427 129.720,302.819 130.600 C 303.211 131.480,303.930 133.100,304.417 134.200 C 304.904 135.300,305.909 137.518,306.651 139.129 C 307.393 140.740,308.000 142.122,308.000 142.200 C 308.000 142.278,308.606 143.660,309.348 145.271 C 310.089 146.882,311.185 149.280,311.782 150.600 C 312.808 152.866,313.218 153.793,314.563 156.900 C 314.873 157.615,315.773 159.608,316.563 161.329 C 317.353 163.050,318.000 164.522,318.000 164.600 C 318.000 164.678,318.606 166.060,319.348 167.671 C 321.308 171.931,322.785 175.204,323.468 176.800 C 323.798 177.570,324.222 178.496,324.410 178.857 C 324.949 179.889,324.534 180.000,320.128 180.000 L 315.990 180.000 314.941 177.700 C 314.365 176.435,313.574 174.680,313.184 173.800 C 312.795 172.920,311.919 170.972,311.238 169.472 C 310.557 167.972,310.000 166.679,310.000 166.600 C 310.000 166.521,309.453 165.273,308.784 163.828 L 307.567 161.200 287.373 161.200 L 267.178 161.200 265.589 164.624 C 264.715 166.507,264.000 168.138,264.000 168.248 C 264.000 168.359,263.532 169.473,262.961 170.725 C 262.389 171.976,261.685 173.540,261.395 174.200 C 261.105 174.860,260.413 176.435,259.856 177.700 L 258.844 180.000 254.622 180.000 C 252.044 180.000,250.400 179.843,250.400 179.596 C 250.400 179.196,251.125 177.473,253.089 173.200 C 254.808 169.464,255.895 167.059,256.526 165.600 C 257.244 163.939,258.792 160.513,260.652 156.471 C 261.394 154.860,262.000 153.478,262.000 153.400 C 262.000 153.322,262.606 151.940,263.348 150.329 C 264.934 146.881,266.621 143.161,267.488 141.200 C 268.908 137.985,271.188 132.875,272.307 130.400 C 272.754 129.410,273.966 126.710,275.000 124.400 C 277.058 119.802,277.904 117.925,279.688 114.000 C 280.338 112.570,281.144 110.770,281.478 110.000 C 281.813 109.230,282.378 108.015,282.734 107.300 L 283.382 106.000 287.591 106.005 L 291.800 106.009 292.484 107.505 M286.629 117.029 C 286.283 117.374,286.000 117.835,286.000 118.053 C 286.000 118.271,285.532 119.473,284.961 120.725 C 284.389 121.976,283.687 123.540,283.400 124.200 C 282.683 125.848,281.278 128.988,280.145 131.475 C 279.625 132.617,279.200 133.638,279.200 133.746 C 279.200 133.854,278.553 135.350,277.763 137.071 C 276.973 138.792,276.056 140.830,275.726 141.600 C 275.397 142.370,274.801 143.720,274.402 144.600 C 274.003 145.480,273.270 147.190,272.773 148.400 C 272.276 149.610,271.719 150.771,271.535 150.980 C 269.955 152.774,270.188 152.800,287.614 152.800 C 303.117 152.800,304.008 152.761,303.667 152.100 C 303.469 151.715,302.994 150.680,302.613 149.800 C 302.232 148.920,301.510 147.300,301.009 146.200 C 300.507 145.100,299.822 143.570,299.486 142.800 C 299.149 142.030,298.227 139.992,297.437 138.271 C 296.647 136.550,296.000 135.077,296.000 134.999 C 296.000 134.920,295.443 133.628,294.762 132.128 C 293.564 129.487,292.779 127.729,291.490 124.800 C 291.151 124.030,290.227 121.992,289.437 120.271 C 288.647 118.550,288.000 116.975,288.000 116.771 C 288.000 116.203,287.328 116.329,286.629 117.029 M28.400 264.400 L 28.400 348.400 111.750 348.400 C 157.593 348.400,195.663 348.288,196.350 348.150 L 197.600 347.900 197.600 264.150 L 197.600 180.400 113.000 180.400 L 28.400 180.400 28.400 264.400 M118.271 223.741 C 136.632 227.284,148.784 241.725,148.784 260.000 C 148.784 278.196,136.658 292.669,118.400 296.267 C 114.266 297.082,82.290 297.539,81.395 296.796 C 80.578 296.118,80.485 224.085,81.300 223.245 C 82.073 222.450,113.784 222.875,118.271 223.741 M244.468 227.100 C 267.715 227.157,305.875 227.157,329.268 227.100 C 352.661 227.043,333.640 226.996,287.000 226.996 C 240.360 226.996,221.221 227.043,244.468 227.100 M89.467 231.467 C 89.320 231.613,89.200 244.573,89.200 260.267 L 89.200 288.800 102.654 288.800 C 115.520 288.800,116.906 288.703,120.800 287.525 C 140.751 281.491,147.093 254.815,132.133 239.855 C 129.713 237.435,124.898 234.000,123.926 234.000 C 123.615 234.000,123.189 233.845,122.980 233.655 C 122.422 233.147,120.152 232.405,117.200 231.764 C 114.477 231.173,90.022 230.911,89.467 231.467 M279.800 266.461 C 279.140 266.677,277.700 267.121,276.600 267.448 C 264.675 270.989,259.066 282.807,264.268 293.432 C 267.131 299.279,271.403 301.715,288.000 306.963 C 299.594 310.629,304.000 314.275,304.000 320.200 C 304.000 329.280,288.057 334.371,275.800 329.206 C 275.140 328.928,274.150 328.521,273.600 328.301 C 272.657 327.925,271.203 327.206,269.412 326.229 C 268.311 325.629,264.359 322.782,263.418 321.912 C 262.263 320.842,261.977 321.105,259.936 325.112 L 258.072 328.772 259.671 330.217 C 264.200 334.308,270.711 337.519,278.646 339.574 C 281.671 340.357,293.400 340.092,296.600 339.169 C 300.838 337.945,300.872 337.933,302.800 336.876 C 310.034 332.912,314.000 326.837,314.000 319.722 C 314.000 317.536,312.139 310.800,311.535 310.800 C 311.351 310.800,311.200 310.529,311.200 310.197 C 311.200 309.343,306.076 304.329,304.400 303.544 C 300.430 301.683,298.328 300.800,297.869 300.800 C 297.589 300.800,297.189 300.657,296.980 300.483 C 296.771 300.308,294.170 299.386,291.200 298.432 C 288.230 297.479,285.487 296.542,285.105 296.350 C 284.723 296.157,284.123 296.000,283.772 296.000 C 281.110 296.000,273.643 290.594,273.064 288.249 C 272.949 287.782,272.653 286.596,272.406 285.614 C 271.355 281.430,274.242 277.891,280.400 275.818 C 282.547 275.095,292.385 274.963,294.954 275.623 C 298.966 276.654,301.227 277.478,304.442 279.083 C 308.690 281.202,308.183 281.298,309.636 278.100 C 310.310 276.615,311.112 274.890,311.417 274.268 C 312.457 272.143,305.751 268.346,298.000 266.669 C 295.538 266.137,281.288 265.974,279.800 266.461 M295.400 266.999 C 300.909 268.004,303.125 268.729,307.900 271.089 C 311.235 272.737,311.395 273.163,309.800 276.162 C 309.250 277.196,308.800 278.281,308.800 278.572 C 308.800 280.079,307.712 280.024,304.349 278.349 C 286.287 269.352,266.182 276.113,272.783 288.964 C 274.510 292.326,278.618 295.186,284.000 296.773 C 286.329 297.460,289.186 298.398,290.200 298.809 C 290.640 298.987,291.360 299.224,291.800 299.335 C 292.768 299.580,296.940 301.076,298.600 301.775 C 299.260 302.053,300.430 302.517,301.200 302.806 C 308.640 305.599,312.800 311.717,312.800 319.865 C 312.800 328.086,309.659 332.788,301.605 336.628 C 292.400 341.015,279.163 340.429,268.600 335.166 C 259.956 330.860,258.284 329.035,260.200 326.000 C 260.750 325.129,261.200 324.272,261.200 324.097 C 261.200 323.922,261.480 323.378,261.823 322.889 L 262.446 321.999 264.109 323.300 C 265.024 324.015,266.106 324.895,266.514 325.256 C 267.122 325.793,269.775 327.182,274.805 329.597 C 279.608 331.904,290.937 332.586,295.400 330.837 C 306.756 326.387,307.886 314.942,297.471 309.856 C 294.538 308.425,292.551 307.600,292.034 307.600 C 291.789 307.600,291.277 307.439,290.895 307.243 C 290.513 307.046,288.580 306.400,286.600 305.806 C 284.620 305.213,282.707 304.576,282.349 304.391 C 281.991 304.206,281.044 303.932,280.245 303.782 C 279.445 303.632,278.693 303.350,278.572 303.155 C 278.451 302.960,278.083 302.800,277.753 302.800 C 277.423 302.800,275.588 302.039,273.676 301.108 C 266.441 297.587,263.200 292.666,263.200 285.200 C 263.200 280.157,264.341 277.009,267.298 273.897 C 273.066 267.824,284.519 265.013,295.400 266.999 " stroke="none" fill="#a3a3a3" fill-rule="evenodd"></path><path id="path1" d="M28.800 90.000 L 28.800 174.400 113.200 174.400 L 197.600 174.400 197.600 90.000 L 197.600 5.600 113.200 5.600 L 28.800 5.600 28.800 90.000 M121.494 58.449 C 135.178 61.672,142.000 69.935,142.000 83.286 C 142.000 87.633,141.786 89.020,140.502 93.000 C 138.622 98.828,133.797 103.959,127.700 106.614 C 126.765 107.021,126.000 107.471,126.000 107.613 C 126.000 107.841,132.635 117.540,133.524 118.610 C 133.711 118.836,134.207 119.556,134.625 120.210 C 135.044 120.865,136.965 123.606,138.893 126.303 C 143.270 132.422,143.378 132.000,137.437 132.000 L 132.474 132.000 124.937 120.621 L 117.400 109.242 105.300 109.221 L 93.200 109.200 93.200 120.600 L 93.200 132.000 88.600 132.000 L 84.000 132.000 84.000 95.267 C 84.000 75.063,84.120 58.413,84.267 58.267 C 84.743 57.790,119.418 57.960,121.494 58.449 M93.200 83.600 L 93.200 100.800 104.076 100.800 C 126.632 100.800,132.948 96.994,132.954 83.400 C 132.959 69.945,126.825 66.400,103.536 66.400 L 93.200 66.400 93.200 83.600 M282.734 107.300 C 282.378 108.015,281.813 109.230,281.478 110.000 C 281.144 110.770,280.338 112.570,279.688 114.000 C 277.904 117.925,277.058 119.802,275.000 124.400 C 273.966 126.710,272.754 129.410,272.307 130.400 C 271.188 132.875,268.908 137.985,267.488 141.200 C 266.621 143.161,264.934 146.881,263.348 150.329 C 262.606 151.940,262.000 153.322,262.000 153.400 C 262.000 153.478,261.394 154.860,260.652 156.471 C 258.792 160.513,257.244 163.939,256.526 165.600 C 255.895 167.059,254.808 169.464,253.089 173.200 C 251.125 177.473,250.400 179.196,250.400 179.596 C 250.400 179.843,252.044 180.000,254.622 180.000 L 258.844 180.000 259.856 177.700 C 260.413 176.435,261.105 174.860,261.395 174.200 C 261.685 173.540,262.389 171.976,262.961 170.725 C 263.532 169.473,264.000 168.359,264.000 168.248 C 264.000 168.138,264.715 166.507,265.589 164.624 L 267.178 161.200 287.373 161.200 L 307.567 161.200 308.784 163.828 C 309.453 165.273,310.000 166.521,310.000 166.600 C 310.000 166.679,310.557 167.972,311.238 169.472 C 311.919 170.972,312.795 172.920,313.184 173.800 C 313.574 174.680,314.365 176.435,314.941 177.700 L 315.990 180.000 320.128 180.000 C 324.534 180.000,324.949 179.889,324.410 178.857 C 324.222 178.496,323.798 177.570,323.468 176.800 C 322.785 175.204,321.308 171.931,319.348 167.671 C 318.606 166.060,318.000 164.678,318.000 164.600 C 318.000 164.522,317.353 163.050,316.563 161.329 C 315.773 159.608,314.873 157.615,314.563 156.900 C 313.218 153.793,312.808 152.866,311.782 150.600 C 311.185 149.280,310.089 146.882,309.348 145.271 C 308.606 143.660,308.000 142.278,308.000 142.200 C 308.000 142.122,307.393 140.740,306.651 139.129 C 305.909 137.518,304.904 135.300,304.417 134.200 C 303.930 133.100,303.211 131.480,302.819 130.600 C 302.427 129.720,301.828 128.370,301.488 127.600 C 301.148 126.830,300.298 124.940,299.600 123.400 C 298.361 120.668,297.829 119.474,296.392 116.200 C 295.601 114.399,293.519 109.765,292.484 107.505 L 291.800 106.009 287.591 106.005 L 283.382 106.000 282.734 107.300 M288.000 116.771 C 288.000 116.975,288.647 118.550,289.437 120.271 C 290.227 121.992,291.151 124.030,291.490 124.800 C 292.779 127.729,293.564 129.487,294.762 132.128 C 295.443 133.628,296.000 134.920,296.000 134.999 C 296.000 135.077,296.647 136.550,297.437 138.271 C 298.227 139.992,299.149 142.030,299.486 142.800 C 299.822 143.570,300.507 145.100,301.009 146.200 C 301.510 147.300,302.232 148.920,302.613 149.800 C 302.994 150.680,303.469 151.715,303.667 152.100 C 304.008 152.761,303.117 152.800,287.614 152.800 C 270.188 152.800,269.955 152.774,271.535 150.980 C 271.719 150.771,272.276 149.610,272.773 148.400 C 273.270 147.190,274.003 145.480,274.402 144.600 C 274.801 143.720,275.397 142.370,275.726 141.600 C 276.056 140.830,276.973 138.792,277.763 137.071 C 278.553 135.350,279.200 133.854,279.200 133.746 C 279.200 133.638,279.625 132.617,280.145 131.475 C 281.278 128.988,282.683 125.848,283.400 124.200 C 283.687 123.540,284.389 121.976,284.961 120.725 C 285.532 119.473,286.000 118.271,286.000 118.053 C 286.000 117.553,287.135 116.400,287.629 116.400 C 287.833 116.400,288.000 116.567,288.000 116.771 M81.300 223.245 C 80.485 224.085,80.578 296.118,81.395 296.796 C 82.290 297.539,114.266 297.082,118.400 296.267 C 136.658 292.669,148.784 278.196,148.784 260.000 C 148.784 241.725,136.632 227.284,118.271 223.741 C 113.784 222.875,82.073 222.450,81.300 223.245 M202.400 311.400 L 202.400 395.600 287.000 395.600 L 371.600 395.600 371.600 311.400 L 371.600 227.200 287.000 227.200 L 202.400 227.200 202.400 311.400 M117.200 231.764 C 120.152 232.405,122.422 233.147,122.980 233.655 C 123.189 233.845,123.615 234.000,123.926 234.000 C 124.898 234.000,129.713 237.435,132.133 239.855 C 147.093 254.815,140.751 281.491,120.800 287.525 C 116.906 288.703,115.520 288.800,102.654 288.800 L 89.200 288.800 89.200 260.267 C 89.200 244.573,89.320 231.613,89.467 231.467 C 90.022 230.911,114.477 231.173,117.200 231.764 M298.000 266.669 C 305.751 268.346,312.457 272.143,311.417 274.268 C 311.112 274.890,310.310 276.615,309.636 278.100 C 308.183 281.298,308.690 281.202,304.442 279.083 C 301.227 277.478,298.966 276.654,294.954 275.623 C 283.331 272.637,270.566 278.293,272.406 285.614 C 272.653 286.596,272.949 287.782,273.064 288.249 C 273.643 290.594,281.110 296.000,283.772 296.000 C 284.123 296.000,284.723 296.157,285.105 296.350 C 285.487 296.542,288.230 297.479,291.200 298.432 C 294.170 299.386,296.771 300.308,296.980 300.483 C 297.189 300.657,297.589 300.800,297.869 300.800 C 298.328 300.800,300.430 301.683,304.400 303.544 C 306.076 304.329,311.200 309.343,311.200 310.197 C 311.200 310.529,311.351 310.800,311.535 310.800 C 312.139 310.800,314.000 317.536,314.000 319.722 C 314.000 326.837,310.034 332.912,302.800 336.876 C 300.872 337.933,300.838 337.945,296.600 339.169 C 293.400 340.092,281.671 340.357,278.646 339.574 C 270.711 337.519,264.200 334.308,259.671 330.217 L 258.072 328.772 259.936 325.112 C 261.977 321.105,262.263 320.842,263.418 321.912 C 264.359 322.782,268.311 325.629,269.412 326.229 C 271.203 327.206,272.657 327.925,273.600 328.301 C 274.150 328.521,275.140 328.928,275.800 329.206 C 286.112 333.551,300.966 330.362,303.377 323.285 C 305.868 315.976,301.355 311.186,288.000 306.963 C 271.403 301.715,267.131 299.279,264.268 293.432 C 259.066 282.807,264.675 270.989,276.600 267.448 C 277.700 267.121,279.140 266.677,279.800 266.461 C 281.288 265.974,295.538 266.137,298.000 266.669 " stroke="none" fill="#040404" fill-rule="evenodd"></path><path id="path2" d="M27.600 90.000 C 27.600 139.259,27.749 174.400,27.957 174.400 C 28.756 174.400,28.800 169.981,28.800 90.000 C 28.800 10.019,28.756 5.600,27.957 5.600 C 27.749 5.600,27.600 40.741,27.600 90.000 M202.668 51.866 C 202.520 52.013,202.400 52.283,202.400 52.467 C 202.400 52.650,240.485 52.800,287.033 52.800 C 354.562 52.800,371.633 52.699,371.500 52.300 C 371.319 51.757,203.209 51.324,202.668 51.866 M84.800 95.000 L 84.800 131.600 88.800 131.600 L 92.800 131.600 92.800 120.200 L 92.800 108.800 105.338 108.800 L 117.876 108.800 125.438 120.190 L 133.000 131.580 137.269 131.590 L 141.539 131.600 140.987 130.495 C 140.684 129.887,140.068 128.994,139.618 128.511 C 139.168 128.029,138.800 127.545,138.800 127.436 C 138.800 127.328,135.949 123.226,132.464 118.320 C 123.914 106.285,124.373 107.536,127.876 105.811 C 136.084 101.769,139.859 96.313,141.166 86.600 C 141.766 82.137,140.597 73.817,139.145 72.220 C 138.955 72.011,138.800 71.561,138.800 71.220 C 138.799 69.520,132.842 63.572,129.523 61.956 C 123.037 58.799,119.796 58.400,100.654 58.400 L 84.800 58.400 84.800 95.000 M120.400 66.564 C 121.170 66.724,122.160 67.012,122.600 67.205 C 123.040 67.398,124.278 67.941,125.351 68.411 C 135.746 72.967,137.111 89.900,127.680 97.303 C 123.675 100.446,120.969 100.916,105.900 101.085 L 92.800 101.231 92.800 83.605 L 92.800 65.979 105.900 66.126 C 113.105 66.207,119.630 66.404,120.400 66.564 M202.400 226.200 C 202.400 226.731,212.067 226.800,287.000 226.800 C 361.933 226.800,371.600 226.731,371.600 226.200 C 371.600 225.669,361.933 225.600,287.000 225.600 C 212.067 225.600,202.400 225.669,202.400 226.200 M281.400 266.892 C 269.594 269.145,263.200 275.578,263.200 285.200 C 263.200 290.569,264.456 293.734,267.965 297.205 C 270.094 299.311,276.197 302.800,277.753 302.800 C 278.083 302.800,278.451 302.960,278.572 303.155 C 278.693 303.350,279.445 303.632,280.245 303.782 C 281.044 303.932,281.991 304.206,282.349 304.391 C 282.707 304.576,284.620 305.213,286.600 305.806 C 288.580 306.400,290.513 307.046,290.895 307.243 C 291.277 307.439,291.789 307.600,292.034 307.600 C 292.551 307.600,294.538 308.425,297.471 309.856 C 307.886 314.942,306.756 326.387,295.400 330.837 C 290.937 332.586,279.608 331.904,274.805 329.597 C 269.775 327.182,267.122 325.793,266.514 325.256 C 266.106 324.895,265.024 324.015,264.109 323.300 L 262.446 321.999 261.823 322.889 C 261.480 323.378,261.200 323.922,261.200 324.097 C 261.200 324.272,260.750 325.129,260.200 326.000 C 258.284 329.035,259.956 330.860,268.600 335.166 C 280.466 341.078,294.463 341.029,304.729 335.039 C 317.238 327.741,315.078 308.016,301.200 302.806 C 300.430 302.517,299.260 302.053,298.600 301.775 C 296.940 301.076,292.768 299.580,291.800 299.335 C 291.360 299.224,290.640 298.987,290.200 298.809 C 289.186 298.398,286.329 297.460,284.000 296.773 C 269.429 292.476,266.966 279.238,280.000 275.273 C 287.267 273.062,295.933 274.157,304.349 278.349 C 307.712 280.024,308.800 280.079,308.800 278.572 C 308.800 278.281,309.250 277.196,309.800 276.162 C 311.395 273.163,311.235 272.737,307.900 271.089 C 299.659 267.017,289.322 265.380,281.400 266.892 M112.267 348.300 C 45.419 348.381,28.368 348.503,28.500 348.901 C 28.804 349.812,197.348 349.612,197.524 348.700 C 197.617 348.216,197.434 348.030,196.929 348.099 C 196.528 348.154,158.430 348.244,112.267 348.300 " stroke="none" fill="#f6f6f6" fill-rule="evenodd"></path></g></svg>