<svg id="svg" version="1.1" xmlns="http://www.w3.org/2000/svg" xmlns:xlink="http://www.w3.org/1999/xlink" width="400" height="400" viewBox="0, 0, 400,400"><g id="svgg"><path id="path0" d="M29.000 90.000 L 29.000 174.000 113.000 174.000 L 197.000 174.000 197.000 90.000 L 197.000 6.000 113.000 6.000 L 29.000 6.000 29.000 90.000 M203.000 136.000 L 203.000 220.000 287.000 220.000 L 371.000 220.000 371.000 136.000 L 371.000 52.000 287.000 52.000 L 203.000 52.000 203.000 136.000 M366.000 136.000 L 366.000 215.000 287.000 215.000 L 208.000 215.000 208.000 136.000 L 208.000 57.000 287.000 57.000 L 366.000 57.000 366.000 136.000 M122.994 59.092 C 144.325 63.667,148.893 96.230,129.494 105.436 C 125.060 107.540,124.689 106.368,134.000 119.682 C 143.449 133.195,143.135 132.004,137.250 131.982 L 132.500 131.963 125.000 120.500 L 117.500 109.037 105.250 109.018 L 93.000 109.000 93.000 120.500 L 93.000 132.000 88.500 132.000 L 84.000 132.000 84.000 95.000 L 84.000 58.000 100.951 58.000 C 110.274 58.000,120.193 58.491,122.994 59.092 M93.000 83.482 L 93.000 101.192 106.750 100.843 C 127.223 100.325,133.000 96.508,133.000 83.500 C 133.000 70.530,127.280 66.753,106.750 66.166 L 93.000 65.773 93.000 83.482 M280.583 111.194 C 279.288 114.112,272.056 130.225,264.514 147.000 C 256.971 163.775,250.562 178.090,250.270 178.810 C 249.867 179.806,250.901 180.046,254.583 179.810 L 259.426 179.500 263.383 170.230 L 267.340 160.960 287.409 161.230 L 307.478 161.500 311.476 170.750 L 315.474 180.000 320.237 180.000 C 322.857 180.000,324.998 179.887,324.995 179.750 C 324.992 179.613,317.636 163.075,308.648 143.000 L 292.307 106.500 287.623 106.194 L 282.939 105.888 280.583 111.194 M295.804 135.251 L 303.774 153.000 287.374 153.000 L 270.973 153.000 272.360 149.750 C 275.178 143.148,286.209 118.473,286.696 117.683 C 287.425 116.503,287.134 115.941,295.804 135.251 M29.000 265.000 L 29.000 349.000 113.000 349.000 L 197.000 349.000 197.000 265.000 L 197.000 181.000 113.000 181.000 L 29.000 181.000 29.000 265.000 M192.000 265.000 L 192.000 344.000 113.000 344.000 L 34.000 344.000 34.000 265.000 L 34.000 186.000 113.000 186.000 L 192.000 186.000 192.000 265.000 M81.000 260.000 L 81.000 297.147 101.250 296.824 C 120.668 296.513,121.726 296.393,127.000 293.890 C 155.674 280.282,156.352 240.646,128.149 226.750 L 121.553 223.500 101.276 223.176 L 81.000 222.853 81.000 260.000 M203.000 311.000 L 203.000 395.000 287.000 395.000 L 371.000 395.000 371.000 311.000 L 371.000 227.000 287.000 227.000 L 203.000 227.000 203.000 311.000 M118.445 232.528 C 144.242 239.247,148.023 274.030,124.224 285.680 C 118.928 288.273,117.435 288.510,104.250 288.853 L 90.000 289.222 90.000 260.111 L 90.000 231.000 101.290 231.000 C 108.190 231.000,114.860 231.594,118.445 232.528 M301.145 267.970 C 311.059 271.045,312.328 272.245,310.253 276.595 C 309.124 278.964,308.068 279.953,307.036 279.608 C 306.191 279.326,303.025 278.188,300.000 277.080 C 285.272 271.685,270.593 276.688,272.430 286.477 C 273.345 291.355,277.382 293.995,290.917 298.568 C 307.136 304.047,311.404 307.435,313.055 316.142 C 317.266 338.352,283.673 348.345,261.543 331.465 L 258.058 328.807 260.060 324.882 L 262.063 320.956 265.863 324.010 C 281.916 336.911,309.262 331.118,303.055 316.132 C 301.343 311.999,298.803 310.541,285.201 305.880 C 266.917 299.614,263.000 295.940,263.000 285.049 C 263.000 269.843,281.077 261.749,301.145 267.970 " stroke="none" fill="#000000" fill-rule="evenodd"></path></g></svg>